<mxfile host="app.diagrams.net" modified="2023-09-07T02:15:33.900Z" agent="Mozilla/5.0 (Windows NT 10.0; Win64; x64) AppleWebKit/537.36 (KHTML, like Gecko) Chrome/116.0.0.0 Safari/537.36" etag="yCaixShBNKmwdK0UUxGN" version="21.7.2" type="github">
  <diagram name="Page-1" id="EYiHIfuKGrWJQrBOgiUl">
    <mxGraphModel dx="1659" dy="1750" grid="1" gridSize="10" guides="1" tooltips="1" connect="1" arrows="1" fold="1" page="1" pageScale="1" pageWidth="850" pageHeight="1100" math="0" shadow="0">
      <root>
        <object label="" id="0">
          <mxCell />
        </object>
        <mxCell id="1" parent="0" />
        <mxCell id="S9C8Efaqk0itBLyKr3iV-4" value="" style="swimlane;startSize=0;" vertex="1" parent="1">
          <mxGeometry x="-490" y="-180" width="300" height="570" as="geometry" />
        </mxCell>
        <mxCell id="S9C8Efaqk0itBLyKr3iV-12" value="login" style="ellipse;whiteSpace=wrap;html=1;" vertex="1" parent="S9C8Efaqk0itBLyKr3iV-4">
          <mxGeometry x="100" y="30" width="90" height="60" as="geometry" />
        </mxCell>
        <mxCell id="S9C8Efaqk0itBLyKr3iV-15" value="input nilai" style="ellipse;whiteSpace=wrap;html=1;" vertex="1" parent="S9C8Efaqk0itBLyKr3iV-4">
          <mxGeometry x="105" y="410" width="85" height="50" as="geometry" />
        </mxCell>
        <mxCell id="S9C8Efaqk0itBLyKr3iV-42" value="input mapel" style="ellipse;whiteSpace=wrap;html=1;" vertex="1" parent="S9C8Efaqk0itBLyKr3iV-4">
          <mxGeometry x="102.5" y="480" width="85" height="50" as="geometry" />
        </mxCell>
        <mxCell id="S9C8Efaqk0itBLyKr3iV-45" style="edgeStyle=orthogonalEdgeStyle;rounded=0;orthogonalLoop=1;jettySize=auto;html=1;exitX=0.5;exitY=1;exitDx=0;exitDy=0;" edge="1" parent="S9C8Efaqk0itBLyKr3iV-4" source="S9C8Efaqk0itBLyKr3iV-15" target="S9C8Efaqk0itBLyKr3iV-15">
          <mxGeometry relative="1" as="geometry" />
        </mxCell>
        <mxCell id="S9C8Efaqk0itBLyKr3iV-48" value="input siswa" style="ellipse;whiteSpace=wrap;html=1;" vertex="1" parent="S9C8Efaqk0itBLyKr3iV-4">
          <mxGeometry x="100" y="330" width="90" height="50" as="geometry" />
        </mxCell>
        <mxCell id="S9C8Efaqk0itBLyKr3iV-32" value="lihat data" style="ellipse;whiteSpace=wrap;html=1;" vertex="1" parent="S9C8Efaqk0itBLyKr3iV-4">
          <mxGeometry x="100" y="190" width="90" height="50" as="geometry" />
        </mxCell>
        <mxCell id="S9C8Efaqk0itBLyKr3iV-61" value="pesan error" style="ellipse;whiteSpace=wrap;html=1;" vertex="1" parent="S9C8Efaqk0itBLyKr3iV-4">
          <mxGeometry x="70" y="120" width="70" height="50" as="geometry" />
        </mxCell>
        <mxCell id="S9C8Efaqk0itBLyKr3iV-65" value="verifikasi" style="ellipse;whiteSpace=wrap;html=1;" vertex="1" parent="S9C8Efaqk0itBLyKr3iV-4">
          <mxGeometry x="150" y="120" width="70" height="50" as="geometry" />
        </mxCell>
        <mxCell id="S9C8Efaqk0itBLyKr3iV-66" value="" style="endArrow=none;dashed=1;html=1;dashPattern=1 3;strokeWidth=2;rounded=0;exitX=0.5;exitY=0;exitDx=0;exitDy=0;entryX=0.4;entryY=1.033;entryDx=0;entryDy=0;entryPerimeter=0;" edge="1" parent="S9C8Efaqk0itBLyKr3iV-4" source="S9C8Efaqk0itBLyKr3iV-61" target="S9C8Efaqk0itBLyKr3iV-12">
          <mxGeometry width="50" height="50" relative="1" as="geometry">
            <mxPoint x="160" y="90" as="sourcePoint" />
            <mxPoint x="210" y="40" as="targetPoint" />
          </mxGeometry>
        </mxCell>
        <mxCell id="S9C8Efaqk0itBLyKr3iV-68" value="" style="endArrow=none;dashed=1;html=1;dashPattern=1 3;strokeWidth=2;rounded=0;entryX=0.5;entryY=0;entryDx=0;entryDy=0;exitX=0.667;exitY=0.967;exitDx=0;exitDy=0;exitPerimeter=0;" edge="1" parent="S9C8Efaqk0itBLyKr3iV-4" source="S9C8Efaqk0itBLyKr3iV-12" target="S9C8Efaqk0itBLyKr3iV-65">
          <mxGeometry width="50" height="50" relative="1" as="geometry">
            <mxPoint x="160" y="90" as="sourcePoint" />
            <mxPoint x="210" y="40" as="targetPoint" />
          </mxGeometry>
        </mxCell>
        <mxCell id="S9C8Efaqk0itBLyKr3iV-71" value="" style="endArrow=classic;html=1;rounded=0;exitX=0.5;exitY=1;exitDx=0;exitDy=0;entryX=0.5;entryY=0;entryDx=0;entryDy=0;" edge="1" parent="S9C8Efaqk0itBLyKr3iV-4" target="S9C8Efaqk0itBLyKr3iV-32">
          <mxGeometry width="50" height="50" relative="1" as="geometry">
            <mxPoint x="144.5" y="90" as="sourcePoint" />
            <mxPoint x="150" y="180" as="targetPoint" />
          </mxGeometry>
        </mxCell>
        <mxCell id="S9C8Efaqk0itBLyKr3iV-72" value="input data" style="ellipse;whiteSpace=wrap;html=1;" vertex="1" parent="S9C8Efaqk0itBLyKr3iV-4">
          <mxGeometry x="100" y="260" width="90" height="50" as="geometry" />
        </mxCell>
        <mxCell id="S9C8Efaqk0itBLyKr3iV-64" style="edgeStyle=elbowEdgeStyle;rounded=0;orthogonalLoop=1;jettySize=auto;html=1;exitX=1;exitY=0.3333333333333333;exitDx=0;exitDy=0;exitPerimeter=0;entryX=0.439;entryY=0.033;entryDx=0;entryDy=0;entryPerimeter=0;" edge="1" parent="1" source="S9C8Efaqk0itBLyKr3iV-5" target="S9C8Efaqk0itBLyKr3iV-12">
          <mxGeometry relative="1" as="geometry">
            <Array as="points">
              <mxPoint x="-460" y="-130" />
            </Array>
          </mxGeometry>
        </mxCell>
        <mxCell id="S9C8Efaqk0itBLyKr3iV-5" value="Siswa" style="shape=umlActor;verticalLabelPosition=bottom;verticalAlign=top;html=1;outlineConnect=0;" vertex="1" parent="1">
          <mxGeometry x="-620" y="-30" width="70" height="130" as="geometry" />
        </mxCell>
        <mxCell id="S9C8Efaqk0itBLyKr3iV-8" value="Guru" style="shape=umlActor;verticalLabelPosition=bottom;verticalAlign=top;html=1;outlineConnect=0;" vertex="1" parent="1">
          <mxGeometry x="-620" y="220" width="70" height="130" as="geometry" />
        </mxCell>
        <mxCell id="S9C8Efaqk0itBLyKr3iV-11" value="Admin" style="shape=umlActor;verticalLabelPosition=bottom;verticalAlign=top;html=1;outlineConnect=0;" vertex="1" parent="1">
          <mxGeometry x="-130" y="30" width="70" height="130" as="geometry" />
        </mxCell>
        <mxCell id="S9C8Efaqk0itBLyKr3iV-18" value="" style="endArrow=classic;html=1;rounded=0;entryX=1;entryY=0.5;entryDx=0;entryDy=0;exitX=0;exitY=0.3333333333333333;exitDx=0;exitDy=0;exitPerimeter=0;" edge="1" parent="1" source="S9C8Efaqk0itBLyKr3iV-11" target="S9C8Efaqk0itBLyKr3iV-15">
          <mxGeometry width="50" height="50" relative="1" as="geometry">
            <mxPoint x="-120" y="70" as="sourcePoint" />
            <mxPoint x="-250" y="270" as="targetPoint" />
          </mxGeometry>
        </mxCell>
        <mxCell id="S9C8Efaqk0itBLyKr3iV-46" value="" style="endArrow=classic;html=1;rounded=0;entryX=1;entryY=0.5;entryDx=0;entryDy=0;exitX=0;exitY=0.3333333333333333;exitDx=0;exitDy=0;exitPerimeter=0;" edge="1" parent="1" source="S9C8Efaqk0itBLyKr3iV-11" target="S9C8Efaqk0itBLyKr3iV-42">
          <mxGeometry width="50" height="50" relative="1" as="geometry">
            <mxPoint x="-140" y="110" as="sourcePoint" />
            <mxPoint x="-260" y="160" as="targetPoint" />
          </mxGeometry>
        </mxCell>
        <mxCell id="S9C8Efaqk0itBLyKr3iV-52" value="" style="endArrow=classic;html=1;rounded=0;exitX=1;exitY=0.3333333333333333;exitDx=0;exitDy=0;exitPerimeter=0;entryX=0;entryY=0.5;entryDx=0;entryDy=0;" edge="1" parent="1" source="S9C8Efaqk0itBLyKr3iV-8" target="S9C8Efaqk0itBLyKr3iV-15">
          <mxGeometry width="50" height="50" relative="1" as="geometry">
            <mxPoint x="-310" y="210" as="sourcePoint" />
            <mxPoint x="-260" y="160" as="targetPoint" />
          </mxGeometry>
        </mxCell>
        <mxCell id="S9C8Efaqk0itBLyKr3iV-57" value="" style="endArrow=classic;html=1;rounded=0;exitX=0;exitY=0.3333333333333333;exitDx=0;exitDy=0;exitPerimeter=0;entryX=1;entryY=0.5;entryDx=0;entryDy=0;" edge="1" parent="1" source="S9C8Efaqk0itBLyKr3iV-11" target="S9C8Efaqk0itBLyKr3iV-48">
          <mxGeometry width="50" height="50" relative="1" as="geometry">
            <mxPoint x="-310" y="210" as="sourcePoint" />
            <mxPoint x="-260" y="160" as="targetPoint" />
          </mxGeometry>
        </mxCell>
        <mxCell id="S9C8Efaqk0itBLyKr3iV-59" value="" style="endArrow=classic;html=1;rounded=0;exitX=1;exitY=0.3333333333333333;exitDx=0;exitDy=0;exitPerimeter=0;entryX=0;entryY=0.5;entryDx=0;entryDy=0;" edge="1" parent="1" source="S9C8Efaqk0itBLyKr3iV-8" target="S9C8Efaqk0itBLyKr3iV-12">
          <mxGeometry width="50" height="50" relative="1" as="geometry">
            <mxPoint x="-540" y="260" as="sourcePoint" />
            <mxPoint x="-260" y="160" as="targetPoint" />
          </mxGeometry>
        </mxCell>
        <mxCell id="S9C8Efaqk0itBLyKr3iV-56" value="" style="endArrow=classic;html=1;rounded=0;entryX=1;entryY=0.5;entryDx=0;entryDy=0;exitX=0;exitY=0.3333333333333333;exitDx=0;exitDy=0;exitPerimeter=0;" edge="1" parent="1" source="S9C8Efaqk0itBLyKr3iV-11" target="S9C8Efaqk0itBLyKr3iV-12">
          <mxGeometry width="50" height="50" relative="1" as="geometry">
            <mxPoint x="-310" y="210" as="sourcePoint" />
            <mxPoint x="-260" y="160" as="targetPoint" />
          </mxGeometry>
        </mxCell>
        <mxCell id="S9C8Efaqk0itBLyKr3iV-73" value="" style="endArrow=classic;html=1;rounded=0;exitX=0;exitY=0.3333333333333333;exitDx=0;exitDy=0;exitPerimeter=0;entryX=1;entryY=0.5;entryDx=0;entryDy=0;" edge="1" parent="1" source="S9C8Efaqk0itBLyKr3iV-11" target="S9C8Efaqk0itBLyKr3iV-72">
          <mxGeometry width="50" height="50" relative="1" as="geometry">
            <mxPoint x="-320" y="100" as="sourcePoint" />
            <mxPoint x="-270" y="50" as="targetPoint" />
          </mxGeometry>
        </mxCell>
        <mxCell id="S9C8Efaqk0itBLyKr3iV-74" value="" style="endArrow=classic;html=1;rounded=0;exitX=1;exitY=0.3333333333333333;exitDx=0;exitDy=0;exitPerimeter=0;entryX=0;entryY=0.5;entryDx=0;entryDy=0;" edge="1" parent="1" source="S9C8Efaqk0itBLyKr3iV-8" target="S9C8Efaqk0itBLyKr3iV-72">
          <mxGeometry width="50" height="50" relative="1" as="geometry">
            <mxPoint x="-480" y="260" as="sourcePoint" />
            <mxPoint x="-430" y="210" as="targetPoint" />
          </mxGeometry>
        </mxCell>
      </root>
    </mxGraphModel>
  </diagram>
</mxfile>
